# AST/ASF file generated using VICON BodyLanguage
# -----------------------------------------------
:version 1.10
:name VICON
:units
  mass 1.0
  length 0.45
  angle deg
:documentation
   .ast/.asf automatically generated from VICON data using
   VICON BodyBuilder and BodyLanguage model FoxedUp or BRILLIANT.MOD
:root
   order TX TY TZ RX RY RZ
   axis XYZ
   position 0 0 0  
   orientation 0 0 0 
:bonedata
  begin
     id 1 
     name lhipjoint
     direction 0.567725 -0.736092 0.368589 
     length 2.42353 
     axis 0 0 0  XYZ
  end
  begin
     id 2 
     name lfemur
     direction 0.34202 -0.939693 0  
     length 7.24894  
     axis 0 0 20  XYZ
    dof rx ry rz
    limits (-160.0 20.0)
           (-70.0 70.0)
           (-60.0 70.0)
  end
  begin
     id 3 
     name ltibia
     direction 0.34202 -0.939693 0   
     length 7.6997   
     axis 0 0 20   XYZ
    dof rx
    limits (-10.0 170.0)
  end
  begin
     id 4 
     name lfoot
     direction 0.100767 -0.276854 0.955614   
     length 2.37556   
     axis -90 7.62852e-016 20   XYZ
    dof rx rz
    limits (-45.0 90.0)
           (-70.0 20.0)
  end
  begin
     id 5 
     name ltoes
     direction 1.53592e-011 -4.21894e-011 1   
     length 1.18363   
     axis -90 7.62852e-016 20   XYZ
    dof rx
    limits (-90.0 20.0)
  end
  begin
     id 6 
     name rhipjoint
     direction -0.556459 -0.742938 0.372017   
     length 2.4012  
     axis 0 0 0  XYZ 
  end
  begin
     id 7 
     name rfemur
     direction -0.34202 -0.939693 0   
     length 7.5119   
     axis 0 0 -20   XYZ
    dof rx ry rz
    limits (-160.0 20.0)
           (-70.0 70.0)
           (-70.0 60.0)
  end
  begin
     id 8 
     name rtibia
     direction -0.34202 -0.939693 0   
     length 7.50155   
     axis 0 0 -20   XYZ
    dof rx
    limits (-10.0 170.0)
 end
 begin
     id 9 
     name rfoot
     direction -0.118427 -0.325376 0.938139   
     length 2.32487  
     axis -90 -7.62852e-016 -20   XYZ
    dof rx rz
    limits (-45.0 90.0)
           (-20.0 70.0)
  end
  begin
     id 10 
     name rtoes
     direction -1.53525e-011 -4.21868e-011 1   
     length 1.15233   
     axis -90 -7.62852e-016 -20   XYZ
    dof rx
    limits (-90.0 20.0)
  end
  begin
     id 11 
     name lowerback
     direction 0.0287568 0.999577 -0.00434502   
     length 2.15243   
     axis 0 0 0   XYZ
    dof rx ry rz
    limits (-20.0 45.0)
           (-30.0 30.0)
           (-30.0 30.0)
  end
  begin
     id 12 
     name upperback
     direction 0.0294009 0.99956 0.00404628   
     length 2.15427   
     axis 0 0 0   XYZ
    dof rx ry rz
    limits (-20.0 45.0)
           (-30.0 30.0)
           (-30.0 30.0)
  end
  begin
     id 13 
     name thorax
     direction 0.0151014 0.999868 0.0059419   
     length 2.14898   
     axis 0 0 0   XYZ
    dof rx ry rz
    limits (-20.0 45.0)
           (-30.0 30.0)
           (-30.0 30.0)
  end
  begin
     id 14 
     name lowerneck
     direction -0.0249197 0.989906 0.139515   
     length 1.6861   
     axis 0 0 0   XYZ
    dof rx ry rz
    limits (-20.0 45.0)
           (-30.0 30.0)
           (-30.0 30.0)
  end
  begin
     id 15 
     name upperneck
     direction 0.0438463 0.988795 -0.142693   
     length 1.71276   
     axis 0 0 0   XYZ
    dof rx ry rz
    limits (-20.0 45.0)
           (-30.0 30.0)
           (-30.0 30.0)
  end
  begin
     id 16
     name head
     direction 0.0148499 0.997845 -0.0639186  
     length 1.7209  
     axis 0 0 0   XYZ
    dof rx ry rz
    limits (-20.0 45.0)
           (-30.0 30.0)
           (-30.0 30.0)
  end
  begin
     id 17 
     name lclavicle
     direction 0.940298 0.323464 -0.105876  
     length 3.9048  
     axis 0 0 0   XYZ
    dof ry rz
    limits (-20.0 10.0)
           (0.0 20.0)
  end
  begin
     id 18 
     name lhumerus
     direction 1 -4.48954e-011 -4.9675e-028   
     length 4.6851   
     axis 180 -30 -90   XYZ
    dof rx ry rz
    limits (-60.0 90.0)
           (-90.0 90.0)
           (-90.0 90.0)
  end
  begin
     id 19
     name lradius
     direction 1 -4.48992e-011 -1.03359e-026   
     length 3.39626   
     axis 180 -30 -90   XYZ
    dof rx
    limits (-10.0 170.0)
  end
  begin
     id 20
     name lwrist
     direction 1 -4.48906e-011 -1.67336e-026   
     length 1.69813   
     axis 9.90442e-015 90 90   XYZ
    dof ry
    limits (-180.0 0.0)
 end
  begin
     id 21 
     name lhand
     direction 1 -4.49006e-011 -3.34673e-026   
     length 0.486078   
     axis 2.1355e-014 90 90   XYZ
    dof rx rz
    limits (-90.0 90.0)
           (-45.0 45.0)
  end
  begin
     id 22 
     name lfingers
     direction 1 -4.48992e-011 -6.69345e-026   
     length 0.391889   
     axis 4.27099e-014 90 90   XYZ
    dof rx
    limits (0.0 90.0)
  end
  begin
     id 23
     name lthumb
     direction 0.707107 -6.34926e-011 0.707107   
     length 0.562676   
     axis -90 45 2.85299e-015   XYZ
    dof rx rz
    limits (-45.0 45.0)
           (-45.0 45.0)
  end
  begin
     id 24 
     name rclavicle
     direction -0.882459 0.414895 -0.221648   
     length 3.44646  
     axis 0 0 0   XYZ 
    dof ry rz
    limits (-10.0 20.0)
           (-20.0 0.0)
  end
  begin
     id 25 
     name rhumerus
     direction -1 -4.48962e-011 -2.37984e-027  
     length 5.55576   
     axis 180 30 90   XYZ
    dof rx ry rz
    limits (-90.0 60.0)
           (-90.0 90.0)
           (-90.0 90.0)
  end
  begin
     id 26 
     name rradius
     direction -1 -4.48982e-011 -6.86791e-027   
     length 3.32774   
     axis 180 30 90   XYZ
    dof rx
    limits (-10.0 170.0)
  end
  begin
     id 27 
     name rwrist
     direction -1 -4.48961e-011 -1.67336e-026   
     length 1.66387   
     axis 9.90442e-015 -90 -90   XYZ
    dof ry
    limits (-180.0 0.0)
  end
  begin
     id 28
     name rhand
     direction -1 -4.4897e-011 -3.34673e-026   
     length 0.507628   
     axis 2.1355e-014 -90 -90   XYZ
    dof rx rz
    limits (-90.0 90.0)
           (-45.0 45.0)
  end
  begin
     id 29
     name rfingers
     direction -1 -4.48854e-011 -6.69345e-026   
     length 0.409263   
     axis 4.27099e-014 -90 -90   XYZ
    dof rx
    limits (0.0 90.0)
  end
  begin
     id 30
     name rthumb
     direction -0.707107 -6.34913e-011 0.707107   
     length 0.587622   
     axis -90 -45 -2.85299e-015   XYZ
    dof rx rz
    limits (-45.0 45.0)
           (-45.0 45.0)
  end
:hierarchy
  begin
    root lhipjoint rhipjoint lowerback
    lhipjoint lfemur
    lfemur ltibia
    ltibia lfoot
    lfoot ltoes
    rhipjoint rfemur
    rfemur rtibia
    rtibia rfoot
    rfoot rtoes
    lowerback upperback
    upperback thorax
    thorax lowerneck lclavicle rclavicle
    lowerneck upperneck
    upperneck head
    lclavicle lhumerus
    lhumerus lradius
    lradius lwrist
    lwrist lhand lthumb
    lhand lfingers
    rclavicle rhumerus
    rhumerus rradius
    rradius rwrist
    rwrist rhand rthumb
    rhand rfingers
  end

#!OML:ASF E:\motion texture\Top Level 1\Subject 1\Session 1\male.ASF
:FULLY-SPECIFIED
:DEGREES
21
root 43.7071 17.645 3.46955 104.68 -83.9811 -92.6513
lowerback -1.71443 1.09642 5.25774
upperback -0.243879 1.25589 3.49763
thorax 0.748767 0.602771 0.677956
lowerneck -18.8605 -0.1187 -5.82418
upperneck 13.1983 0.401608 5.64309
head 7.10328 0.423171 2.84718
rclavicle 5.76476e-015 -1.98785e-014
rhumerus -26.7951 7.75346 -84.3348
rradius 35.8245
rwrist 12.8582
rhand -13.5747 -25.8043
rfingers 7.12502
rthumb 12.5392 -55.4081
lclavicle 5.76476e-015 -1.98785e-014
lhumerus -34.7999 21.0824 79.5013
lradius 30.0035
lwrist -25.8219
lhand -10.7964 20.8559
lfingers 7.12502
lthumb 15.2167 50.2763
rfemur -9.1469 1.17123 31.4917
rtibia 16.0969
rfoot -16.7582 -14.7936
rtoes 18.4997
lfemur -35.8786 3.01525 -9.87759
ltibia 45.2189
lfoot -12.0537 6.00503
ltoes -13.815
22
root 43.6652 17.639 3.46046 104.076 -83.9433 -92.019
lowerback -1.66216 1.1393 5.31192
upperback -0.220571 1.31608 3.4604
thorax 0.747135 0.633627 0.610364
lowerneck -18.8348 -0.137595 -5.82831
upperneck 13.0686 0.376019 5.66448
head 7.05819 0.413077 2.84976
rclavicle -1.59028e-015 -7.15625e-015
rhumerus -26.8727 8.2113 -84.5222
rradius 36.401
rwrist 12.8368
rhand -13.5645 -25.7275
rfingers 7.12502
rthumb 12.549 -55.3306
lclavicle -1.59028e-015 -7.15625e-015
lhumerus -34.878 20.9806 79.4593
lradius 30.1619
lwrist -25.6657
lhand -10.7536 20.9196
lfingers 7.12502
lthumb 15.2578 50.3369
rfemur -8.97151 1.17641 31.5879
rtibia 16.0061
rfoot -16.9538 -14.8589
rtoes 18.5064
lfemur -36.4367 3.10226 -9.80858
ltibia 44.9619
lfoot -11.8765 6.0196
ltoes -13.9227
23
root 43.6213 17.6327 3.45169 103.543 -83.904 -91.454
lowerback -1.61695 1.1845 5.3661
upperback -0.198925 1.37897 3.42108
thorax 0.748078 0.665885 0.540776
lowerneck -18.811 -0.157765 -5.8341
upperneck 12.9414 0.348955 5.68726
head 7.01438 0.402279 2.85298
rclavicle 9.44227e-015 6.12257e-014
rhumerus -26.946 8.66753 -84.7119
rradius 36.9823
rwrist 12.8232
rhand -13.5626 -25.6506
rfingers 7.12502
rthumb 12.5509 -55.2536
lclavicle 9.44227e-015 6.12257e-014
lhumerus -34.9629 20.8826 79.4115
lradius 30.3268
lwrist -25.4977
lhand -10.7079 20.9873
lfingers 7.12502
lthumb 15.3018 50.4012
rfemur -8.7915 1.18219 31.6828
rtibia 15.9118
rfoot -17.1511 -14.9201
rtoes 18.5138
lfemur -36.9709 3.18266 -9.73829
ltibia 44.6126
lfoot -11.6922 6.03827
ltoes -14.0156
24
root 43.5753 17.6259 3.44306 103.076 -83.8621 -90.954
lowerback -1.57486 1.23191 5.42108
upperback -0.179283 1.44472 3.3798
thorax 0.749074 0.699572 0.468819
lowerneck -18.7895 -0.178263 -5.84498
upperneck 12.8174 0.3217 5.71669
head 6.97206 0.391706 2.8593
rclavicle 1.23246e-014 5.08889e-014
rhumerus -27.0162 9.12353 -84.905
rradius 37.567
rwrist 12.8165
rhand -13.562 -25.5697
rfingers 7.12502
rthumb 12.5514 -55.1727
lclavicle 1.23246e-014 5.08889e-014
lhumerus -35.0557 20.7988 79.3525
lradius 30.4942
lwrist -25.3306
lhand -10.6607 21.0639
lfingers 7.12502
lthumb 15.3473 50.4743
rfemur -8.60274 1.19187 31.7788
rtibia 15.815
rfoot -17.3538 -14.98
rtoes 18.5246
lfemur -37.4761 3.25778 -9.66435
ltibia 44.172
lfoot -11.5024 6.06048
ltoes -14.0992
25
root 43.5273 17.6187 3.43464 102.665 -83.8186 -90.5084
lowerback -1.53699 1.28126 5.4755
upperback -0.161562 1.5129 3.33699
thorax 0.750785 0.734478 0.395706
lowerneck -18.7662 -0.199522 -5.85615
upperneck 12.6917 0.293778 5.74442
head 6.92899 0.380581 2.86502
rclavicle -2.78299e-015 -2.26615e-014
rhumerus -27.0821 9.57745 -85.0996
rradius 38.1557
rwrist 12.8183
rhand -13.5283 -25.5051
rfingers 7.12502
rthumb 12.5839 -55.1061
lclavicle -2.78299e-015 -2.26615e-014
lhumerus -35.1553 20.7236 79.2864
lradius 30.6671
lwrist -25.1569
lhand -10.6121 21.1443
lfingers 7.12502
lthumb 15.3941 50.5512
rfemur -8.40714 1.20246 31.8744
rtibia 15.7156
rfoot -17.5605 -15.037
rtoes 18.5385
lfemur -37.9549 3.32593 -9.58752
ltibia 43.6441
lfoot -11.3045 6.08678
ltoes -14.1757
26
root 43.4772 17.611 3.42646 102.336 -83.7726 -90.1421
lowerback -1.50391 1.33334 5.53055
upperback -0.145658 1.58446 3.2926
thorax 0.75373 0.771093 0.320774
lowerneck -18.7449 -0.220575 -5.87016
upperneck 12.5694 0.266196 5.77641
head 6.88738 0.369827 2.87273
rclavicle 3.27995e-015 -1.07344e-014
rhumerus -27.1419 10.0304 -85.2958
rradius 38.746
rwrist 12.8271
rhand -13.4958 -25.4348
rfingers 7.12502
rthumb 12.6152 -55.0339
lclavicle 3.27995e-015 -1.07344e-014
lhumerus -35.2617 20.6565 79.2135
lradius 30.8469
lwrist -24.9755
lhand -10.5616 21.2319
lfingers 7.12502
lthumb 15.4427 50.635
rfemur -8.20464 1.21414 31.9705
rtibia 15.6135
rfoot -17.7708 -15.0881
rtoes 18.5527
lfemur -38.4065 3.38952 -9.50608
ltibia 43.0326
lfoot -11.1002 6.11646
ltoes -14.2497
27
root 43.4249 17.6028 3.4185 102.059 -83.7246 -89.8276
lowerback -1.47445 1.38679 5.58622
upperback -0.131166 1.65767 3.24683
thorax 0.757619 0.80855 0.244176
lowerneck -18.7241 -0.242345 -5.88558
upperneck 12.447 0.238154 5.80803
head 6.84588 0.358712 2.88053
rclavicle 1.30204e-014 -7.15625e-015
rhumerus -27.1962 10.4823 -85.4931
rradius 39.3404
rwrist 12.8467
rhand -13.4606 -25.3582
rfingers 7.12502
rthumb 12.6492 -54.9552
lclavicle 1.30204e-014 -7.15625e-015
lhumerus -35.3747 20.5972 79.135
lradius 31.0347
lwrist -24.7838
lhand -10.5112 21.3269
lfingers 7.12502
lthumb 15.4913 50.7263
rfemur -7.99431 1.22386 32.0668
rtibia 15.5098
rfoot -17.9865 -15.1333
rtoes 18.5739
lfemur -38.831 3.44637 -9.42037
ltibia 42.3427
lfoot -10.8885 6.14857
ltoes -14.3252
28
root 43.3706 17.594 3.41079 101.859 -83.6747 -89.5864
lowerback -1.44966 1.44254 5.64175
upperback -0.118484 1.73369 3.19967
thorax 0.762672 0.847424 0.166396
lowerneck -18.7044 -0.264533 -5.90295
upperneck 12.325 0.20991 5.841
head 6.8048 0.347491 2.8891
rclavicle -1.12313e-014 -2.82274e-014
rhumerus -27.2444 10.9341 -85.6911
rradius 39.9389
rwrist 12.8707
rhand -13.4177 -25.2899
rfingers 7.12502
rthumb 12.6905 -54.8843
lclavicle -1.12313e-014 -2.82274e-014
lhumerus -35.4938 20.5447 79.0518
lradius 31.2319
lwrist -24.582
lhand -10.4604 21.4344
lfingers 7.12502
lthumb 15.5403 50.83
rfemur -7.77905 1.23519 32.1628
rtibia 15.4068
rfoot -18.208 -15.1731
rtoes 18.5979
lfemur -39.2299 3.4975 -9.32945
ltibia 41.5796
lfoot -10.6699 6.18402
ltoes -14.3915
29
root 43.3142 17.5847 3.40338 101.739 -83.6211 -89.4244
lowerback -1.42851 1.50049 5.70002
upperback -0.10767 1.81244 3.15129
thorax 0.768349 0.887657 0.0859863
lowerneck -18.685 -0.286701 -5.92274
upperneck 12.2035 0.181997 5.87622
head 6.76393 0.336474 2.89887
rclavicle -9.0447e-015 -1.15295e-014
rhumerus -27.2845 11.3859 -85.89
rradius 40.5382
rwrist 12.9021
rhand -13.3742 -25.2168
rfingers 7.12502
rthumb 12.7325 -54.8086
lclavicle -9.0447e-015 -1.15295e-014
lhumerus -35.62 20.4993 78.9639
lradius 31.4406
lwrist -24.3693
lhand -10.4091 21.5478
lfingers 7.12502
lthumb 15.5897 50.9396
rfemur -7.55787 1.24577 32.2602
rtibia 15.3039
rfoot -18.4341 -15.2043
rtoes 18.6292
lfemur -39.6031 3.54363 -9.23071
ltibia 40.7497
lfoot -10.4451 6.2187
ltoes -14.4491
30
root 43.2556 17.5748 3.3963 101.689 -83.5655 -89.3296
lowerback -1.4112 1.56053 5.75893
upperback -0.0987377 1.89374 3.10194
thorax 0.774703 0.929167 0.00437743
lowerneck -18.6661 -0.308432 -5.94541
upperneck 12.082 0.15499 5.91447
head 6.72312 0.325988 2.91023
rclavicle 1.0635e-014 -1.82882e-014
rhumerus -27.317 11.8378 -86.0879
rradius 41.1406
rwrist 12.941
rhand -13.322 -25.1463
rfingers 7.12502
rthumb 12.7828 -54.735
lclavicle 1.0635e-014 -1.82882e-014
lhumerus -35.7531 20.4598 78.8734
lradius 31.6623
lwrist -24.1464
lhand -10.3572 21.6664
lfingers 7.12502
lthumb 15.6396 51.0542
rfemur -7.33274 1.25653 32.3575
rtibia 15.2051
rfoot -18.6676 -15.2285
rtoes 18.6679
lfemur -39.952 3.5828 -9.12586
ltibia 39.8602
lfoot -10.2131 6.25196
ltoes -14.5002
31
root 43.1949 17.5643 3.38951 101.711 -83.5063 -89.306
lowerback -1.39732 1.62219 5.8199
upperback -0.0914138 1.97697 3.05187
thorax 0.78181 0.971639 -0.0789763
lowerneck -18.6504 -0.329314 -5.97097
upperneck 11.9643 0.129377 5.9563
head 6.68407 0.316341 2.92348
rclavicle -1.68967e-014 -1.07344e-014
rhumerus -27.3421 12.292 -86.2859
rradius 41.7414
rwrist 13.0001
rhand -13.2771 -25.0603
rfingers 7.12502
rthumb 12.8261 -54.6463
lclavicle -1.68967e-014 -1.07344e-014
lhumerus -35.8931 20.4249 78.7807
lradius 31.8991
lwrist -23.9107
lhand -10.3047 21.7886
lfingers 7.12502
lthumb 15.6902 51.1724
rfemur -7.10272 1.26744 32.456
rtibia 15.1101
rfoot -18.9086 -15.2449
rtoes 18.7165
lfemur -40.2761 3.61615 -9.01209
ltibia 38.9174
lfoot -9.9722 6.28903
ltoes -14.5289
32
root 43.1322 17.5533 3.38318 101.817 -83.4439 -89.3632
lowerback -1.38677 1.68559 5.88346
upperback -0.0863092 2.06233 3.00093
thorax 0.789045 1.01515 -0.164505
lowerneck -18.6377 -0.350479 -5.99746
upperneck 11.8484 0.103833 5.99782
head 6.64614 0.306652 2.93687
rclavicle 2.40529e-014 3.73715e-014
rhumerus -27.3583 12.7485 -86.4826
rradius 42.3452
rwrist 13.0683
rhand -13.224 -24.974
rfingers 7.12502
rthumb 12.8772 -54.5567
lclavicle 2.40529e-014 3.73715e-014
lhumerus -36.0407 20.3877 78.69
lradius 32.1566
lwrist -23.6546
lhand -10.2543 21.9202
lfingers 7.12502
lthumb 15.7388 51.3003
rfemur -6.87125 1.2754 32.5543
rtibia 15.0202
rfoot -19.1549 -15.2491
rtoes 18.7722
lfemur -40.58 3.64275 -8.88979
ltibia 37.9316
lfoot -9.72246 6.33646
ltoes -14.559
33
root 43.0671 17.5415 3.37713 102.009 -83.3799 -89.5041
lowerback -1.37892 1.75115 5.94626
upperback -0.0827395 2.15044 2.94908
thorax 0.796691 1.06002 -0.250378
lowerneck -18.6264 -0.371001 -6.02733
upperneck 11.7328 0.079605 6.04262
head 6.60851 0.297707 2.95205
rclavicle 6.75868e-015 3.26007e-014
rhumerus -27.365 13.2077 -86.6776
rradius 42.9495
rwrist 13.1442
rhand -13.2063 -24.8755
rfingers 7.12502
rthumb 12.8944 -54.4572
lclavicle 6.75868e-015 3.26007e-014
lhumerus -36.1943 20.3593 78.5969
lradius 32.4293
lwrist -23.3926
lhand -10.204 22.0543
lfingers 7.12502
lthumb 15.7872 51.4306
rfemur -6.63416 1.28348 32.6512
rtibia 14.9345
rfoot -19.4065 -15.2443
rtoes 18.8286
lfemur -40.8596 3.66332 -8.75973
ltibia 36.9083
lfoot -9.46815 6.39538
ltoes -14.5867
34
root 42.9998 17.5293 3.37137 102.24 -83.3135 -89.6853
lowerback -1.37214 1.81712 6.00921
upperback -0.0802956 2.23906 2.89718
thorax 0.804162 1.10514 -0.336331
lowerneck -18.6152 -0.391363 -6.05882
upperneck 11.6167 0.0561148 6.08728
head 6.5707 0.288999 2.96752
rclavicle 1.03368e-014 3.97569e-015
rhumerus -27.3647 13.6701 -86.8699
rradius 43.558
rwrist 13.2276
rhand -13.2223 -24.7457
rfingers 7.12502
rthumb 12.8789 -54.3283
lclavicle 1.03368e-014 3.97569e-015
lhumerus -36.3548 20.3327 78.5049
lradius 32.7219
lwrist -23.1181
lhand -10.1542 22.1907
lfingers 7.12502
lthumb 15.8351 51.5632
rfemur -6.38824 1.28816 32.748
rtibia 14.852
rfoot -19.6655 -15.2308
rtoes 18.9002
lfemur -41.1145 3.67429 -8.62065
ltibia 35.8559
lfoot -9.21299 6.46589
ltoes -14.6331
